<svg width="48" height="48" viewBox="0 0 48 48" fill="none" xmlns="http://www.w3.org/2000/svg">
    <path opacity="0.5" d="M24 44C14.5719 44 9.85786 44 6.92894 41.071C4 38.1422 4 33.428 4 24C4 14.5719 4 9.85786 6.92894 6.92894C9.85786 4 14.5719 4 24 4C33.428 4 38.1422 4 41.071 6.92894C44 9.85786 44 14.5719 44 24C44 33.428 44 38.1422 41.071 41.071C38.1422 44 33.428 44 24 44Z" fill="#1C274C" />
    <path d="M24 16.5C24.8284 16.5 25.5 17.1716 25.5 18V22.5H30C30.8284 22.5 31.5 23.1716 31.5 24C31.5 24.8284 30.8284 25.5 30 25.5H25.5V30C25.5 30.8284 24.8284 31.5 24 31.5C23.1716 31.5 22.5 30.8284 22.5 30V25.5H18C17.1716 25.5 16.5 24.8284 16.5 24C16.5 23.1716 17.1716 22.5 18 22.5H22.5V18C22.5 17.1716 23.1716 16.5 24 16.5Z" fill="#1C274C" />
</svg>
