<svg width="48" height="48" viewBox="0 0 48 48" fill="none" xmlns="http://www.w3.org/2000/svg">
    <path opacity="0.5" d="M6.06828 17.7801C5.1072 11.3729 4.62666 8.16932 6.42196 6.08466C8.21724 4 11.4567 4 17.9355 4H30.067C36.5458 4 39.7854 4 41.5806 6.08466C43.3758 8.16932 42.8954 11.3729 41.9342 17.7801L39.5342 33.78C38.803 38.6552 38.4374 41.0928 36.7494 42.5464C35.0616 44 32.5968 44 27.667 44H20.3356C15.4058 44 12.9409 44 11.2531 42.5464C9.56521 41.0928 9.19956 38.6552 8.46828 33.78L6.06828 17.7801Z" fill="#1C274C" />
    <path fill-rule="evenodd" clip-rule="evenodd" d="M7.03449 24.2304L6.45445 20.3634L10.1432 16.2649L7.37831 13.5H5.45903C5.32005 12.3664 5.23069 11.3749 5.21289 10.5H42.787C42.7692 11.3749 42.6798 12.3664 42.5408 13.5H40.621L37.856 16.2649L41.5454 20.364L40.9656 24.2296L37.7648 27.6438L40.1026 29.9818L39.5492 33.671L35.7118 29.8336L31.9582 33.8374L34.621 36.5H39.112C38.9164 37.6794 38.7222 38.6662 38.484 39.5H9.51581C9.27767 38.6662 9.08353 37.6794 8.88785 36.5H13.3783L16.041 33.8374L12.2875 29.8336L8.45051 33.6704L7.89711 29.9812L10.2346 27.6438L7.03449 24.2304ZM12.1529 14.0319L11.621 13.5H12.6316L12.1529 14.0319ZM14.2771 16.1562L16.6677 13.5H19.3783L21.8784 16L17.9996 19.8787L14.2771 16.1562ZM23.9996 13.8787L23.621 13.5H24.3784L23.9996 13.8787ZM26.121 16L28.621 13.5H31.3316L33.7222 16.1562L29.9996 19.8787L26.121 16ZM35.8464 14.0319L35.3676 13.5H36.3784L35.8464 14.0319ZM32.121 22L35.7318 18.3891L38.963 21.9792L35.6422 25.5214L32.121 22ZM29.9996 24.1214L33.5894 27.711L29.8358 31.7148L26.121 28L29.9996 24.1214ZM23.9996 30.1214L27.783 33.9046L25.3498 36.5H22.6494L20.2164 33.9046L23.9996 30.1214ZM30.3784 36.5H29.462L29.9054 36.027L30.3784 36.5ZM18.0939 36.027L18.5373 36.5H17.621L18.0939 36.027ZM21.8784 28L18.1634 31.7148L14.4099 27.711L17.9996 24.1214L21.8784 28ZM15.8783 22L12.357 25.5214L9.03633 21.9792L12.2675 18.3891L15.8783 22ZM23.9996 25.8786L20.121 22L23.9996 18.1213L27.8784 22L23.9996 25.8786Z" fill="#1C274C" />
</svg>
