<svg width="48" height="48" viewBox="0 0 48 48" fill="none" xmlns="http://www.w3.org/2000/svg">
    <path opacity="0.5" d="M8 24C8 32.8366 15.1634 40 24 40C32.8366 40 40 32.8366 40 24H8Z" fill="#1C274C" />
    <path fill-rule="evenodd" clip-rule="evenodd" d="M31.0606 15.0607C30.4748 15.6464 29.5252 15.6464 28.9394 15.0607L25.5 11.6213V28C25.5 28.8284 24.8284 29.5 24 29.5C23.1716 29.5 22.5 28.8284 22.5 28V11.6213L19.0607 15.0607C18.4749 15.6464 17.5251 15.6464 16.9393 15.0607C16.3536 14.4749 16.3536 13.5251 16.9393 12.9393L22.9394 6.93933C23.5252 6.35356 24.4748 6.35356 25.0606 6.93933L31.0606 12.9393C31.6464 13.5251 31.6464 14.4749 31.0606 15.0607Z" fill="#1C274C" />
</svg>
