<svg width="48" height="48" viewBox="0 0 48 48" fill="none" xmlns="http://www.w3.org/2000/svg">
    <path fill-rule="evenodd" clip-rule="evenodd" d="M6.92894 6.92894C4 9.85786 4 14.5719 4 24C4 33.428 4 38.1422 6.92894 41.071C9.85786 44 14.5719 44 24 44C33.428 44 38.1422 44 41.071 41.071C44 38.1422 44 33.428 44 24C44 14.5719 44 9.85786 41.071 6.92894C38.1422 4 33.428 4 24 4C14.5719 4 9.85786 4 6.92894 6.92894ZM35.1524 20.9602C35.6826 20.3238 35.5966 19.378 34.9602 18.8477C34.3238 18.3173 33.378 18.4033 32.8476 19.0397L29.2538 23.3522C28.5124 24.2422 28.0568 24.783 27.6818 25.1218C27.5078 25.2788 27.4046 25.3416 27.355 25.3654C27.345 25.3704 27.3378 25.3732 27.3334 25.375C27.3334 25.375 27.3248 25.3716 27.318 25.3684L27.3116 25.3654C27.2622 25.3416 27.159 25.2788 26.985 25.1218C26.6098 24.783 26.1544 24.2422 25.4128 23.3522L24.828 22.6504C24.171 21.862 23.5788 21.1512 23.0256 20.6516C22.4238 20.1082 21.6656 19.6241 20.6666 19.6241C19.6677 19.6241 18.9096 20.1082 18.3077 20.6516C17.7545 21.1512 17.1623 21.862 16.5053 22.6506L12.8477 27.0398C12.3173 27.6762 12.4033 28.622 13.0397 29.1524C13.6761 29.6826 14.622 29.5966 15.1523 28.9602L18.7461 24.6478C19.4877 23.7578 19.9431 23.217 20.3182 22.8782C20.4922 22.7212 20.5954 22.6584 20.645 22.6346C20.6502 22.632 20.6584 22.6284 20.6584 22.6284L20.6666 22.625C20.6712 22.6268 20.6784 22.6296 20.6884 22.6346C20.7378 22.6584 20.841 22.7212 21.015 22.8782C21.3902 23.217 21.8456 23.7578 22.5872 24.6478L23.172 25.3496C23.829 26.138 24.4212 26.8488 24.9744 27.3484C25.5762 27.8918 26.3344 28.376 27.3334 28.376C28.3324 28.376 29.0904 27.8918 29.6924 27.3484C30.2456 26.8488 30.8378 26.138 31.4946 25.3496L35.1524 20.9602Z" fill="#1C274C" />
</svg>
