<svg width="3920" height="630" viewBox="0 0 3920 630" fill="none" xmlns="http://www.w3.org/2000/svg">
    <path fill-rule="evenodd" clip-rule="evenodd" d="M1451.53 270.476H1415.04L1412.03 283.732H1451.53C1487.67 283.732 1499.86 293.478 1499.86 322.354V336.332C1490.9 327.241 1475.05 322.633 1452.67 322.633C1416.94 322.633 1399.57 337.979 1399.57 369.536V371.833C1399.57 401.421 1416.68 416.428 1450.4 416.428H1459.47C1495.2 416.428 1513.32 401.421 1513.32 371.833V322.354C1513.32 285.506 1495.41 270.476 1451.53 270.476ZM1499.86 373.746C1499.86 394.921 1488.44 403.172 1459.1 403.172H1453.42C1425.12 403.172 1413.03 393.796 1413.03 371.833V369.536C1413.03 345.679 1424.55 335.508 1451.53 335.508H1453.8C1486.09 335.508 1499.86 345.337 1499.86 368.383V373.746ZM514.766 296.482L521.942 261.072H460.17V212.7L416.808 219.336V363.819C416.808 413.769 436.146 428.633 488.867 428.633H511.95L519.131 393.535H491.987C467.969 393.535 460.167 387.536 460.167 360.973V296.482H514.766ZM216.841 195.938V351.178C216.841 408.719 243.042 432.745 300.134 432.745C359.405 432.745 385.611 409.351 385.611 351.49V336.634C385.611 282.256 361.274 255.695 308.244 255.695C291.396 255.695 272.99 259.171 260.511 268.97V188.983L216.841 195.938ZM301.692 290.469C331.639 290.469 342.249 302.486 342.249 338.208V351.49C342.249 386.264 331.639 398.284 301.068 398.284C270.497 398.284 259.884 386.264 259.884 351.174V333.154C259.884 301.22 270.497 290.469 301.692 290.469ZM619.583 255.695C562.492 255.695 536.287 280.037 536.287 335.68V344.219C536.287 397.015 559.063 422.622 612.715 422.622C629.875 422.622 647.035 419.466 659.199 409.66V415.991C659.199 445.711 646.411 455.502 616.46 455.502L594.5 456C584.251 456.185 583.623 457.531 577.446 467.794L577.411 467.779C525.973 550.281 436.67 600.682 339.347 600.682C184.063 600.682 57.7351 472.659 57.7351 315.286C57.7351 157.916 184.063 29.8925 339.347 29.8925C448.42 29.8925 547.646 93.9078 594.069 193.529H607.009C559.696 86.8543 454.81 18 339.347 18C177.597 18 46 151.363 46 315.286C46 479.212 177.597 612.575 339.347 612.575C434.474 612.575 522.261 566.353 576.99 489.647H618.956C674.175 489.647 702.565 468.468 702.565 414.405V332.838C702.565 279.088 675.425 255.695 619.583 255.695ZM659.515 349.592C659.515 379.311 649.22 388.478 619.587 388.478C586.202 388.478 579.653 376.781 579.653 342.323V336.95C579.653 302.798 585.578 290.469 619.583 290.469C652.961 290.469 659.515 302.486 659.515 337.262V349.592ZM1541.11 416.428H1554.58V215.634H1541.11V416.428ZM1237.87 283.736L1240.89 270.476H1180.68V232.569L1166.85 235.073V364.93C1166.85 401.91 1180.52 415.663 1217.29 415.663H1237.17L1239.68 402.407H1217.29C1189.58 402.407 1180.68 393.49 1180.68 365.691V283.739L1237.87 283.736ZM1362.49 358.796C1362.49 392.97 1351.95 403.937 1319.08 403.937C1287.19 403.937 1276.42 392.549 1276.42 358.796V270.476H1262.59V358.796C1262.59 400.822 1278.43 417.192 1319.08 417.192C1359.48 417.192 1375.95 400.28 1375.95 358.796V270.476H1362.49V358.796ZM1058.07 349.208V336.931C1058.07 297.654 1071.31 283.736 1108.67 283.736H1140.24L1143.25 270.476H1108.68C1064.12 270.476 1044.23 290.97 1044.23 336.927V349.208C1044.23 395.166 1064.11 415.663 1108.68 415.663H1140.61L1143.63 402.407H1108.68C1072.26 402.407 1058.07 387.491 1058.07 349.208ZM958.442 270.476H921.957L918.944 283.732H958.442C994.298 283.732 1006.39 293.478 1006.39 322.354V336.332C997.44 327.241 981.593 322.633 959.195 322.633C923.477 322.633 906.111 337.979 906.111 369.536V371.833C906.111 401.421 923.332 416.428 957.303 416.428H966.387C1001.87 416.428 1019.86 401.421 1019.86 371.833V322.354C1019.86 285.506 1002.06 270.476 958.442 270.476ZM1006.39 373.746C1006.39 395.2 995.448 403.172 966.01 403.172H960.335C931.766 403.172 919.572 393.796 919.572 371.833V369.536C919.572 345.679 931.083 335.508 958.063 335.508H960.335C992.619 335.508 1006.39 345.337 1006.39 368.383V373.746ZM822.962 268.175C780.293 268.175 760.416 289.538 760.416 335.395V460.15H773.876V396.089C783.617 408.919 801.776 416.428 823.718 416.428C866.196 416.428 885.138 395.694 885.138 349.208V335.015C885.138 288.789 865.96 268.175 822.962 268.175ZM871.294 349.204C871.294 388.546 858.404 403.168 823.718 403.168C790.895 403.168 774.252 386.948 774.252 354.955V335.395C774.252 297.059 788.366 281.426 822.962 281.426C857.742 281.426 871.294 296.449 871.294 335.015V349.204Z" fill="white" stroke="#195AB4" stroke-width="16" />
    <g clip-path="url(#clip0_2317_5237)">
        <path d="M1658.57 240.44H1736.86C1755.9 240.44 1769.67 244.095 1778.17 251.405C1786.84 258.715 1791.17 270.105 1791.17 285.575V288.125C1791.17 297.475 1789.22 305.38 1785.31 311.84C1781.57 318.13 1775.62 322.89 1767.46 326.12C1776.3 328.67 1783.35 333.43 1788.62 340.4C1793.89 347.2 1796.53 356.465 1796.53 368.195V372.275C1796.53 389.785 1791.26 402.45 1780.72 410.27C1770.18 418.09 1755.39 422 1736.35 422H1658.57V240.44ZM1692.49 394.205H1734.82C1744.85 394.205 1751.9 392.505 1755.98 389.105C1760.06 385.535 1762.1 379.16 1762.1 369.98V366.665C1762.1 357.145 1759.89 350.515 1755.47 346.775C1751.05 343.035 1743.57 341.165 1733.03 341.165H1692.49V394.205ZM1692.49 268.235V314.135H1730.99C1740.68 314.135 1747.48 312.35 1751.39 308.78C1755.3 305.21 1757.26 299.43 1757.26 291.44V288.125C1757.26 280.985 1755.39 275.885 1751.65 272.825C1748.08 269.765 1741.96 268.235 1733.29 268.235H1692.49ZM1851.03 422H1817.88V334.79C1817.88 326.29 1819.07 319.15 1821.45 313.37C1823.83 307.42 1827.31 302.66 1831.9 299.09C1836.49 295.52 1842.1 292.97 1848.73 291.44C1855.36 289.74 1862.93 288.89 1871.43 288.89C1877.89 288.89 1883.41 288.89 1888 288.89C1892.59 288.89 1897.1 288.975 1901.52 289.145L1896.16 316.685C1892.76 316.515 1889.02 316.43 1884.94 316.43C1880.86 316.26 1877.46 316.175 1874.74 316.175C1869.3 316.175 1865.05 316.685 1861.99 317.705C1858.93 318.725 1856.55 320.255 1854.85 322.295C1853.15 324.165 1852.05 326.63 1851.54 329.69C1851.2 332.58 1851.03 336.065 1851.03 340.145V422ZM1974.2 285.32C1985.59 285.32 1995.28 286.34 2003.27 288.38C2011.26 290.42 2017.8 293.905 2022.9 298.835C2028 303.595 2031.66 310.055 2033.87 318.215C2036.25 326.375 2037.44 336.575 2037.44 348.815V362.585C2037.44 374.825 2036.25 385.025 2033.87 393.185C2031.66 401.345 2028 407.89 2022.9 412.82C2017.8 417.58 2011.26 420.98 2003.27 423.02C1995.28 425.06 1985.59 426.08 1974.2 426.08C1962.64 426.08 1952.86 425.06 1944.87 423.02C1936.88 420.98 1930.34 417.58 1925.24 412.82C1920.14 407.89 1916.4 401.345 1914.02 393.185C1911.81 385.025 1910.7 374.825 1910.7 362.585V348.815C1910.7 336.575 1911.81 326.375 1914.02 318.215C1916.4 310.055 1920.14 303.595 1925.24 298.835C1930.34 293.905 1936.88 290.42 1944.87 288.38C1952.86 286.34 1962.64 285.32 1974.2 285.32ZM2003.78 348.305C2003.78 340.485 2003.35 334.195 2002.5 329.435C2001.65 324.505 2000.12 320.765 1997.91 318.215C1995.87 315.665 1992.9 313.965 1988.99 313.115C1985.25 312.265 1980.32 311.84 1974.2 311.84C1968.08 311.84 1963.06 312.265 1959.15 313.115C1955.24 313.965 1952.18 315.665 1949.97 318.215C1947.93 320.765 1946.49 324.505 1945.64 329.435C1944.79 334.195 1944.36 340.485 1944.36 348.305V363.35C1944.36 371.17 1944.79 377.46 1945.64 382.22C1946.49 386.98 1947.93 390.635 1949.97 393.185C1952.18 395.735 1955.24 397.435 1959.15 398.285C1963.06 399.135 1968.08 399.56 1974.2 399.56C1980.32 399.56 1985.25 399.135 1988.99 398.285C1992.9 397.435 1995.87 395.735 1997.91 393.185C2000.12 390.635 2001.65 386.98 2002.5 382.22C2003.35 377.46 2003.78 371.17 2003.78 363.35V348.305ZM2183.17 387.83L2207.39 289.4H2239.01L2199.74 422H2166.59L2143.39 329.435L2119.93 422H2086.27L2047.51 289.4H2080.91L2103.86 387.32L2129.11 289.4H2159.2L2183.17 387.83ZM2251.68 422V331.73C2251.68 323.4 2252.87 316.26 2255.25 310.31C2257.63 304.36 2261.28 299.6 2266.21 296.03C2271.14 292.29 2277.43 289.57 2285.08 287.87C2292.73 286.17 2301.83 285.32 2312.37 285.32C2333.45 285.32 2348.75 288.89 2358.27 296.03C2367.96 303 2372.8 314.9 2372.8 331.73V422H2339.65V335.81C2339.65 331.9 2339.4 328.5 2338.89 325.61C2338.38 322.72 2337.19 320.34 2335.32 318.47C2333.62 316.43 2330.9 314.985 2327.16 314.135C2323.59 313.115 2318.66 312.605 2312.37 312.605C2306.08 312.605 2301.06 313.115 2297.32 314.135C2293.75 314.985 2291.03 316.43 2289.16 318.47C2287.29 320.34 2286.1 322.72 2285.59 325.61C2285.08 328.5 2284.83 331.9 2284.83 335.81V422H2251.68ZM2399.85 289.4H2433V422H2399.85V289.4ZM2436.31 251.915C2436.31 258.375 2434.87 263.05 2431.98 265.94C2429.09 268.66 2423.99 270.02 2416.68 270.02C2409.37 270.02 2404.27 268.66 2401.38 265.94C2398.49 263.05 2397.04 258.375 2397.04 251.915C2397.04 245.625 2398.49 241.035 2401.38 238.145C2404.27 235.255 2409.37 233.81 2416.68 233.81C2423.99 233.81 2429.09 235.255 2431.98 238.145C2434.87 241.035 2436.31 245.625 2436.31 251.915ZM2542.73 398.03V377.375C2542.73 374.315 2542.39 371.765 2541.71 369.725C2541.2 367.515 2540.01 365.73 2538.14 364.37C2536.27 363.01 2533.63 362.075 2530.23 361.565C2526.83 360.885 2522.33 360.545 2516.72 360.545H2512.89C2503.2 360.545 2496.66 361.735 2493.26 364.115C2489.86 366.495 2488.16 370.83 2488.16 377.12V381.965C2488.16 387.405 2489.69 391.485 2492.75 394.205C2495.98 396.755 2501.84 398.03 2510.34 398.03H2542.73ZM2574.86 398.03C2574.86 407.04 2572.82 413.33 2568.74 416.9C2564.66 420.3 2557.6 422 2547.57 422H2506.01C2487.82 422 2474.9 418.6 2467.25 411.8C2459.77 405 2456.03 395.225 2456.03 382.475V376.865C2456.03 362.755 2460.19 352.555 2468.52 346.265C2476.85 339.805 2489.86 336.575 2507.54 336.575C2516.38 336.575 2523.69 337.34 2529.47 338.87C2535.42 340.23 2539.84 341.845 2542.73 343.715V339.125C2542.73 334.535 2542.22 330.71 2541.2 327.65C2540.35 324.59 2538.82 322.21 2536.61 320.51C2534.4 318.64 2531.34 317.365 2527.43 316.685C2523.69 316.005 2518.93 315.665 2513.15 315.665C2509.92 315.665 2506.35 315.665 2502.44 315.665C2498.53 315.665 2494.53 315.75 2490.45 315.92C2486.54 315.92 2482.63 316.005 2478.72 316.175C2474.81 316.175 2471.24 316.175 2468.01 316.175L2473.37 289.4C2478.13 289.23 2484.08 289.145 2491.22 289.145C2498.36 288.975 2506.18 288.89 2514.68 288.89C2535.42 288.89 2550.63 292.545 2560.32 299.855C2570.01 307.165 2574.86 318.64 2574.86 334.28V398.03ZM2601.8 422V331.73C2601.8 323.4 2602.99 316.26 2605.37 310.31C2607.75 304.36 2611.41 299.6 2616.34 296.03C2621.27 292.29 2627.56 289.57 2635.21 287.87C2642.86 286.17 2651.95 285.32 2662.49 285.32C2683.57 285.32 2698.87 288.89 2708.39 296.03C2718.08 303 2722.93 314.9 2722.93 331.73V422H2689.78V335.81C2689.78 331.9 2689.52 328.5 2689.01 325.61C2688.5 322.72 2687.31 320.34 2685.44 318.47C2683.74 316.43 2681.02 314.985 2677.28 314.135C2673.71 313.115 2668.78 312.605 2662.49 312.605C2656.2 312.605 2651.19 313.115 2647.45 314.135C2643.88 314.985 2641.16 316.43 2639.29 318.47C2637.42 320.34 2636.23 322.72 2635.72 325.61C2635.21 328.5 2634.95 331.9 2634.95 335.81V422H2601.8ZM2894.87 317.45C2903.2 318.98 2910.25 321.105 2916.03 323.825C2921.81 326.375 2926.4 329.69 2929.8 333.77C2933.2 337.85 2935.67 342.695 2937.2 348.305C2938.73 353.915 2939.49 360.375 2939.49 367.685V371.765C2939.49 380.435 2938.3 387.915 2935.92 394.205C2933.71 400.495 2929.89 405.765 2924.45 410.015C2919.01 414.265 2911.78 417.41 2902.77 419.45C2893.93 421.49 2882.88 422.51 2869.62 422.51C2863.16 422.51 2854.92 422.51 2844.89 422.51C2835.03 422.51 2822.02 422.34 2805.87 422L2811.23 393.185C2818.03 393.355 2824.06 393.525 2829.33 393.695C2834.77 393.695 2839.79 393.695 2844.38 393.695C2849.14 393.695 2853.56 393.695 2857.64 393.695C2861.72 393.695 2865.88 393.695 2870.13 393.695C2877.27 393.695 2883.05 393.355 2887.47 392.675C2892.06 391.995 2895.63 390.805 2898.18 389.105C2900.9 387.405 2902.69 385.195 2903.54 382.475C2904.56 379.585 2905.07 375.93 2905.07 371.51C2905.07 367.77 2904.81 364.625 2904.3 362.075C2903.79 359.355 2902.69 357.145 2900.99 355.445C2899.46 353.575 2897.16 352.13 2894.1 351.11C2891.21 349.92 2887.3 348.9 2882.37 348.05L2851.52 342.95C2842.34 341.42 2834.77 339.295 2828.82 336.575C2823.04 333.855 2818.45 330.54 2815.05 326.63C2811.65 322.55 2809.27 317.79 2807.91 312.35C2806.72 306.91 2806.13 300.705 2806.13 293.735V289.145C2806.13 281.495 2807.32 274.61 2809.7 268.49C2812.08 262.37 2815.9 257.27 2821.17 253.19C2826.44 248.94 2833.33 245.71 2841.83 243.5C2850.5 241.12 2861.12 239.93 2873.7 239.93C2878.46 239.93 2882.88 239.93 2886.96 239.93C2891.04 239.93 2895.38 239.93 2899.97 239.93C2904.56 239.93 2909.57 240.015 2915.01 240.185C2920.45 240.185 2926.83 240.27 2934.14 240.44L2928.78 269.255C2916.03 268.915 2905.24 268.745 2896.4 268.745C2887.73 268.745 2879.57 268.745 2871.92 268.745C2865.46 268.745 2860.19 269.085 2856.11 269.765C2852.03 270.445 2848.8 271.635 2846.42 273.335C2844.04 274.865 2842.34 276.99 2841.32 279.71C2840.47 282.43 2840.04 285.83 2840.04 289.91C2840.04 293.48 2840.3 296.455 2840.81 298.835C2841.32 301.215 2842.34 303.255 2843.87 304.955C2845.4 306.655 2847.61 308.1 2850.5 309.29C2853.39 310.31 2857.13 311.16 2861.72 311.84L2894.87 317.45ZM2960.4 289.4H2993.55V422H2960.4V289.4ZM2996.86 251.915C2996.86 258.375 2995.42 263.05 2992.53 265.94C2989.64 268.66 2984.54 270.02 2977.23 270.02C2969.92 270.02 2964.82 268.66 2961.93 265.94C2959.04 263.05 2957.59 258.375 2957.59 251.915C2957.59 245.625 2959.04 241.035 2961.93 238.145C2964.82 235.255 2969.92 233.81 2977.23 233.81C2984.54 233.81 2989.64 235.255 2992.53 238.145C2995.42 241.035 2996.86 245.625 2996.86 251.915ZM3020.66 422V331.22C3020.66 322.72 3021.85 315.58 3024.23 309.8C3026.61 303.85 3030.1 299.09 3034.69 295.52C3039.45 291.95 3045.23 289.4 3052.03 287.87C3058.83 286.17 3066.65 285.32 3075.49 285.32C3084.67 285.32 3092.74 286.595 3099.71 289.145C3106.85 291.695 3112.38 295.35 3116.29 300.11C3120.2 295.35 3125.72 291.695 3132.86 289.145C3140 286.595 3148.25 285.32 3157.6 285.32C3166.27 285.32 3174 286.17 3180.8 287.87C3187.6 289.4 3193.3 291.95 3197.89 295.52C3202.65 299.09 3206.22 303.85 3208.6 309.8C3210.98 315.58 3212.17 322.72 3212.17 331.22V422H3179.02V335.81C3179.02 331.9 3178.76 328.5 3178.25 325.61C3177.91 322.72 3176.98 320.34 3175.45 318.47C3173.92 316.43 3171.54 314.985 3168.31 314.135C3165.25 313.115 3161.08 312.605 3155.81 312.605C3150.88 312.605 3146.97 313.03 3144.08 313.88C3141.19 314.73 3138.9 316.005 3137.2 317.705C3135.5 319.405 3134.39 321.53 3133.88 324.08C3133.37 326.63 3133.12 329.605 3133.12 333.005V422H3099.97V335.81C3099.97 331.9 3099.71 328.5 3099.2 325.61C3098.86 322.72 3097.84 320.34 3096.14 318.47C3094.61 316.43 3092.32 314.985 3089.26 314.135C3086.2 313.115 3082.03 312.605 3076.76 312.605C3071.49 312.605 3067.33 313.115 3064.27 314.135C3061.21 314.985 3058.91 316.43 3057.38 318.47C3055.85 320.34 3054.83 322.72 3054.32 325.61C3053.98 328.5 3053.81 331.9 3053.81 335.81V422H3020.66ZM3299.48 426.08C3289.28 426.08 3280.36 425.23 3272.71 423.53C3265.23 422 3258.94 419.45 3253.84 415.88C3248.91 412.14 3245.25 407.38 3242.87 401.6C3240.49 395.65 3239.3 388.34 3239.3 379.67V289.4H3272.45V375.335C3272.45 379.245 3272.71 382.645 3273.22 385.535C3273.73 388.425 3274.83 390.89 3276.53 392.93C3278.4 394.8 3281.12 396.245 3284.69 397.265C3288.43 398.285 3293.36 398.795 3299.48 398.795C3305.6 398.795 3310.45 398.285 3314.02 397.265C3317.59 396.245 3320.22 394.8 3321.92 392.93C3323.79 390.89 3324.98 388.425 3325.49 385.535C3326 382.645 3326.26 379.245 3326.26 375.335V289.4H3359.41V379.67C3359.41 396.84 3354.48 408.91 3344.62 415.88C3334.93 422.68 3319.88 426.08 3299.48 426.08ZM3386.48 232.535H3419.63V422H3386.48V232.535ZM3529.36 398.03V377.375C3529.36 374.315 3529.02 371.765 3528.34 369.725C3527.83 367.515 3526.64 365.73 3524.77 364.37C3522.9 363.01 3520.27 362.075 3516.87 361.565C3513.47 360.885 3508.96 360.545 3503.35 360.545H3499.53C3489.84 360.545 3483.29 361.735 3479.89 364.115C3476.49 366.495 3474.79 370.83 3474.79 377.12V381.965C3474.79 387.405 3476.32 391.485 3479.38 394.205C3482.61 396.755 3488.48 398.03 3496.98 398.03H3529.36ZM3561.49 398.03C3561.49 407.04 3559.45 413.33 3555.37 416.9C3551.29 420.3 3544.24 422 3534.21 422H3492.64C3474.45 422 3461.53 418.6 3453.88 411.8C3446.4 405 3442.66 395.225 3442.66 382.475V376.865C3442.66 362.755 3446.83 352.555 3455.16 346.265C3463.49 339.805 3476.49 336.575 3494.17 336.575C3503.01 336.575 3510.32 337.34 3516.1 338.87C3522.05 340.23 3526.47 341.845 3529.36 343.715V339.125C3529.36 334.535 3528.85 330.71 3527.83 327.65C3526.98 324.59 3525.45 322.21 3523.24 320.51C3521.03 318.64 3517.97 317.365 3514.06 316.685C3510.32 316.005 3505.56 315.665 3499.78 315.665C3496.55 315.665 3492.98 315.665 3489.07 315.665C3485.16 315.665 3481.17 315.75 3477.09 315.92C3473.18 315.92 3469.27 316.005 3465.36 316.175C3461.45 316.175 3457.88 316.175 3454.65 316.175L3460 289.4C3464.76 289.23 3470.71 289.145 3477.85 289.145C3484.99 288.975 3492.81 288.89 3501.31 288.89C3522.05 288.89 3537.27 292.545 3546.96 299.855C3556.65 307.165 3561.49 318.64 3561.49 334.28V398.03ZM3662.38 422H3641.73C3631.02 422 3622.18 421.235 3615.21 419.705C3608.41 418.175 3602.97 415.54 3598.89 411.8C3594.98 407.89 3592.26 402.705 3590.73 396.245C3589.2 389.785 3588.43 381.71 3588.43 372.02V258.545L3621.58 253.19V289.4H3669.27L3663.91 316.685H3621.58V370.235C3621.58 375.335 3621.84 379.5 3622.35 382.73C3623.03 385.96 3624.13 388.51 3625.66 390.38C3627.36 392.08 3629.66 393.27 3632.55 393.95C3635.61 394.46 3639.43 394.715 3644.02 394.715H3667.74L3662.38 422ZM3748.24 285.32C3759.63 285.32 3769.32 286.34 3777.31 288.38C3785.3 290.42 3791.85 293.905 3796.95 298.835C3802.05 303.595 3805.7 310.055 3807.91 318.215C3810.29 326.375 3811.48 336.575 3811.48 348.815V362.585C3811.48 374.825 3810.29 385.025 3807.91 393.185C3805.7 401.345 3802.05 407.89 3796.95 412.82C3791.85 417.58 3785.3 420.98 3777.31 423.02C3769.32 425.06 3759.63 426.08 3748.24 426.08C3736.68 426.08 3726.91 425.06 3718.92 423.02C3710.93 420.98 3704.38 417.58 3699.28 412.82C3694.18 407.89 3690.44 401.345 3688.06 393.185C3685.85 385.025 3684.75 374.825 3684.75 362.585V348.815C3684.75 336.575 3685.85 326.375 3688.06 318.215C3690.44 310.055 3694.18 303.595 3699.28 298.835C3704.38 293.905 3710.93 290.42 3718.92 288.38C3726.91 286.34 3736.68 285.32 3748.24 285.32ZM3777.82 348.305C3777.82 340.485 3777.4 334.195 3776.55 329.435C3775.7 324.505 3774.17 320.765 3771.96 318.215C3769.92 315.665 3766.94 313.965 3763.03 313.115C3759.29 312.265 3754.36 311.84 3748.24 311.84C3742.12 311.84 3737.11 312.265 3733.2 313.115C3729.29 313.965 3726.23 315.665 3724.02 318.215C3721.98 320.765 3720.53 324.505 3719.68 329.435C3718.83 334.195 3718.41 340.485 3718.41 348.305V363.35C3718.41 371.17 3718.83 377.46 3719.68 382.22C3720.53 386.98 3721.98 390.635 3724.02 393.185C3726.23 395.735 3729.29 397.435 3733.2 398.285C3737.11 399.135 3742.12 399.56 3748.24 399.56C3754.36 399.56 3759.29 399.135 3763.03 398.285C3766.94 397.435 3769.92 395.735 3771.96 393.185C3774.17 390.635 3775.7 386.98 3776.55 382.22C3777.4 377.46 3777.82 371.17 3777.82 363.35V348.305ZM3869.11 422H3835.96V334.79C3835.96 326.29 3837.15 319.15 3839.53 313.37C3841.91 307.42 3845.4 302.66 3849.99 299.09C3854.58 295.52 3860.19 292.97 3866.82 291.44C3873.45 289.74 3881.01 288.89 3889.51 288.89C3895.97 288.89 3901.5 288.89 3906.09 288.89C3910.68 288.89 3915.18 288.975 3919.6 289.145L3914.25 316.685C3910.85 316.515 3907.11 316.43 3903.03 316.43C3898.95 316.26 3895.55 316.175 3892.83 316.175C3887.39 316.175 3883.14 316.685 3880.08 317.705C3877.02 318.725 3874.64 320.255 3872.94 322.295C3871.24 324.165 3870.13 326.63 3869.62 329.69C3869.28 332.58 3869.11 336.065 3869.11 340.145V422Z" fill="#FFFDFD" />
    </g>
    <g clip-path="url(#clip1_2317_5237)">
        <path d="M799.989 512.206L786.498 581.805H782.481L795.972 512.206H770.226L771.771 508.391H826.662L825.117 512.206H799.989ZM818.95 556.646C818.675 558.021 818.469 559.327 818.332 560.564C818.263 561.733 818.229 562.867 818.229 563.967C818.229 568.641 819.499 572.215 822.04 574.69C824.649 577.096 829.077 578.299 835.325 578.299C837.934 578.299 840.371 578.299 842.637 578.299C844.902 578.23 847.202 578.127 849.537 577.99L847.992 581.701C845.795 581.839 843.735 581.908 841.813 581.908C839.959 581.976 837.831 582.011 835.428 582.011C831.583 582.011 828.322 581.598 825.644 580.773C822.966 579.949 820.804 578.78 819.156 577.268C817.508 575.756 816.307 573.9 815.552 571.7C814.796 569.5 814.419 567.026 814.419 564.276C814.419 560.839 814.865 557.23 815.757 553.45C816.856 548.569 818.16 544.479 819.671 541.18C821.25 537.812 823.104 535.096 825.232 533.034C827.429 530.972 829.901 529.494 832.647 528.601C835.462 527.707 838.689 527.26 842.328 527.26C845.417 527.26 848.026 527.569 850.154 528.188C852.351 528.738 854.136 529.563 855.51 530.663C856.951 531.694 857.981 532.965 858.599 534.478C859.217 535.99 859.526 537.64 859.526 539.427C859.526 540.939 859.32 542.52 858.908 544.17C857.947 548.432 855.922 551.594 852.832 553.656C849.742 555.649 844.937 556.646 838.414 556.646H818.95ZM842.225 530.869C839.135 530.869 836.389 531.281 833.986 532.106C831.583 532.862 829.489 534.134 827.704 535.921C825.919 537.64 824.34 539.908 822.966 542.726C821.662 545.545 820.563 549.016 819.671 553.14H838.311C840.989 553.14 843.289 553.003 845.211 552.728C847.134 552.384 848.713 551.834 849.948 551.078C851.253 550.322 852.283 549.36 853.038 548.191C853.862 546.954 854.48 545.442 854.892 543.654C855.235 542.073 855.407 540.733 855.407 539.633C855.407 536.952 854.411 534.821 852.42 533.24C850.498 531.659 847.099 530.869 842.225 530.869ZM899.946 569.844C900.083 569.157 900.186 568.538 900.255 567.988C900.392 567.369 900.461 566.785 900.461 566.235C900.461 562.248 897.714 559.499 892.222 557.986L880.482 554.687C876.706 553.587 874.062 552.109 872.552 550.253C871.11 548.329 870.389 546.198 870.389 543.861C870.389 542.555 870.526 541.352 870.801 540.252C871.35 537.846 872.209 535.887 873.376 534.375C874.611 532.862 876.088 531.694 877.804 530.869C879.589 530.044 881.614 529.494 883.88 529.219C886.214 528.875 888.755 528.704 891.501 528.704C892.188 528.704 893.183 528.704 894.488 528.704C895.792 528.704 897.268 528.738 898.916 528.807C900.564 528.807 902.28 528.841 904.065 528.91C905.919 528.979 907.773 529.047 909.626 529.116L908.185 532.828C906.743 532.759 905.095 532.725 903.241 532.725C901.456 532.656 899.671 532.622 897.886 532.622C896.101 532.553 894.453 532.519 892.943 532.519C891.501 532.45 890.368 532.416 889.544 532.416C885.082 532.416 881.649 533.034 879.246 534.271C876.843 535.44 875.298 537.571 874.612 540.664C874.474 541.214 874.371 541.73 874.303 542.211C874.234 542.692 874.2 543.173 874.2 543.654C874.2 545.442 874.783 546.954 875.95 548.191C877.117 549.36 879.177 550.356 882.129 551.181L893.149 554.275C897.2 555.443 900.083 556.955 901.799 558.811C903.516 560.667 904.374 563.004 904.374 565.823C904.374 566.373 904.305 567.129 904.168 568.091C904.031 569.053 903.859 569.947 903.653 570.772C903.241 572.422 902.623 573.934 901.799 575.309C901.044 576.684 899.877 577.886 898.298 578.918C896.788 579.88 894.797 580.636 892.325 581.186C889.853 581.736 886.729 582.011 882.953 582.011C879.452 582.011 876.191 582.011 873.17 582.011C870.217 582.011 867.025 581.942 863.592 581.805L865.137 578.093C867.403 578.161 869.325 578.23 870.904 578.299C872.483 578.299 873.891 578.299 875.126 578.299C876.431 578.299 877.667 578.299 878.834 578.299C880.07 578.299 881.477 578.299 883.056 578.299C886.352 578.299 889.029 578.093 891.089 577.68C893.149 577.268 894.762 576.684 895.929 575.927C897.165 575.171 898.058 574.278 898.607 573.247C899.156 572.215 899.602 571.081 899.946 569.844ZM928.955 528.91H950.479L948.934 532.519H928.234L922.261 563.554C921.849 565.823 921.643 567.747 921.643 569.328C921.643 572.697 922.57 574.999 924.423 576.237C926.277 577.474 929.161 578.093 933.074 578.093H940.901L939.356 581.805H933.177C928.165 581.805 924.32 580.98 921.643 579.33C919.034 577.68 917.729 574.553 917.729 569.947C917.729 567.816 917.97 565.548 918.45 563.142L927.719 515.196L931.735 514.475L928.955 528.91ZM957.738 556.646C957.463 558.021 957.257 559.327 957.12 560.564C957.051 561.733 957.017 562.867 957.017 563.967C957.017 568.641 958.287 572.215 960.828 574.69C963.437 577.096 967.865 578.299 974.113 578.299C976.722 578.299 979.159 578.299 981.425 578.299C983.69 578.23 985.99 578.127 988.325 577.99L986.78 581.701C984.583 581.839 982.523 581.908 980.601 581.908C978.747 581.976 976.619 582.011 974.216 582.011C970.371 582.011 967.11 581.598 964.432 580.773C961.754 579.949 959.592 578.78 957.944 577.268C956.296 575.756 955.095 573.9 954.34 571.7C953.584 569.5 953.207 567.026 953.207 564.276C953.207 560.839 953.653 557.23 954.545 553.45C955.644 548.569 956.948 544.479 958.459 541.18C960.038 537.812 961.892 535.096 964.02 533.034C966.217 530.972 968.689 529.494 971.435 528.601C974.25 527.707 977.477 527.26 981.116 527.26C984.205 527.26 986.814 527.569 988.942 528.188C991.139 528.738 992.925 529.563 994.298 530.663C995.739 531.694 996.769 532.965 997.387 534.478C998.005 535.99 998.314 537.64 998.314 539.427C998.314 540.939 998.108 542.52 997.696 544.17C996.735 548.432 994.71 551.594 991.62 553.656C988.53 555.649 983.725 556.646 977.202 556.646H957.738ZM981.013 530.869C977.923 530.869 975.177 531.281 972.774 532.106C970.371 532.862 968.277 534.134 966.492 535.921C964.707 537.64 963.128 539.908 961.754 542.726C960.45 545.545 959.351 549.016 958.459 553.14H977.099C979.777 553.14 982.077 553.003 983.999 552.728C985.922 552.384 987.501 551.834 988.736 551.078C990.041 550.322 991.071 549.36 991.826 548.191C992.65 546.954 993.268 545.442 993.68 543.654C994.023 542.073 994.195 540.733 994.195 539.633C994.195 536.952 993.199 534.821 991.208 533.24C989.286 531.659 985.887 530.869 981.013 530.869ZM1043.91 528.91H1065.43L1063.89 532.519H1043.19L1037.21 563.554C1036.8 565.823 1036.6 567.747 1036.6 569.328C1036.6 572.697 1037.52 574.999 1039.38 576.237C1041.23 577.474 1044.11 578.093 1048.03 578.093H1055.85L1054.31 581.805H1048.13C1043.12 581.805 1039.27 580.98 1036.6 579.33C1033.99 577.68 1032.68 574.553 1032.68 569.947C1032.68 567.816 1032.92 565.548 1033.4 563.142L1042.67 515.196L1046.69 514.475L1043.91 528.91ZM1072.69 556.646C1072.42 558.021 1072.21 559.327 1072.07 560.564C1072 561.733 1071.97 562.867 1071.97 563.967C1071.97 568.641 1073.24 572.215 1075.78 574.69C1078.39 577.096 1082.82 578.299 1089.07 578.299C1091.67 578.299 1094.11 578.299 1096.38 578.299C1098.64 578.23 1100.94 578.127 1103.28 577.99L1101.73 581.701C1099.54 581.839 1097.48 581.908 1095.55 581.908C1093.7 581.976 1091.57 582.011 1089.17 582.011C1085.32 582.011 1082.06 581.598 1079.38 580.773C1076.71 579.949 1074.54 578.78 1072.9 577.268C1071.25 575.756 1070.05 573.9 1069.29 571.7C1068.54 569.5 1068.16 567.026 1068.16 564.276C1068.16 560.839 1068.61 557.23 1069.5 553.45C1070.6 548.569 1071.9 544.479 1073.41 541.18C1074.99 537.812 1076.84 535.096 1078.97 533.034C1081.17 530.972 1083.64 529.494 1086.39 528.601C1089.2 527.707 1092.43 527.26 1096.07 527.26C1099.16 527.26 1101.77 527.569 1103.9 528.188C1106.09 528.738 1107.88 529.563 1109.25 530.663C1110.69 531.694 1111.72 532.965 1112.34 534.478C1112.96 535.99 1113.27 537.64 1113.27 539.427C1113.27 540.939 1113.06 542.52 1112.65 544.17C1111.69 548.432 1109.66 551.594 1106.57 553.656C1103.48 555.649 1098.68 556.646 1092.16 556.646H1072.69ZM1095.97 530.869C1092.88 530.869 1090.13 531.281 1087.73 532.106C1085.32 532.862 1083.23 534.134 1081.44 535.921C1079.66 537.64 1078.08 539.908 1076.71 542.726C1075.4 545.545 1074.3 549.016 1073.41 553.14H1092.05C1094.73 553.14 1097.03 553.003 1098.95 552.728C1100.87 552.384 1102.45 551.834 1103.69 551.078C1104.99 550.322 1106.02 549.36 1106.78 548.191C1107.6 546.954 1108.22 545.442 1108.63 543.654C1108.98 542.073 1109.15 540.733 1109.15 539.633C1109.15 536.952 1108.15 534.821 1106.16 533.24C1104.24 531.659 1100.84 530.869 1095.97 530.869ZM1106.57 507.051H1112.13L1096.07 520.042H1091.43L1106.57 507.051ZM1142.18 578.299C1143.96 578.299 1145.75 578.299 1147.53 578.299C1149.32 578.23 1151.1 578.161 1152.89 578.093L1151.34 581.805C1149.97 581.942 1148.32 582.011 1146.4 582.011C1144.48 582.011 1142.83 582.011 1141.46 582.011C1137.68 582.011 1134.49 581.633 1131.88 580.877C1129.27 580.052 1127.14 578.883 1125.49 577.371C1123.85 575.859 1122.64 574.037 1121.89 571.906C1121.2 569.707 1120.86 567.198 1120.86 564.379C1120.86 561.08 1121.27 557.471 1122.09 553.553C1123.12 548.329 1124.5 544.101 1126.21 540.87C1127.93 537.64 1129.96 535.131 1132.29 533.344C1134.69 531.556 1137.44 530.353 1140.53 529.735C1143.62 529.047 1147.05 528.704 1150.83 528.704C1151.79 528.704 1153.26 528.738 1155.26 528.807C1157.25 528.807 1159.17 528.841 1161.02 528.91L1159.48 532.622C1158.31 532.553 1156.94 532.519 1155.36 532.519C1153.85 532.45 1152.17 532.416 1150.31 532.416C1146.81 532.416 1143.76 532.725 1141.15 533.344C1138.54 533.893 1136.27 534.959 1134.35 536.54C1132.43 538.052 1130.78 540.217 1129.41 543.036C1128.1 545.785 1127 549.36 1126.11 553.759C1125.29 557.815 1124.88 561.252 1124.88 564.07C1124.88 566.957 1125.25 569.328 1126.01 571.184C1126.83 572.972 1127.96 574.415 1129.41 575.515C1130.92 576.546 1132.74 577.268 1134.86 577.68C1137.06 578.093 1139.5 578.299 1142.18 578.299ZM1165.37 581.805L1171.96 547.676C1173.33 540.458 1175.8 535.268 1179.37 532.106C1183.01 528.875 1188.3 527.26 1195.23 527.26C1202.1 527.26 1206.97 528.601 1209.86 531.281C1212.81 533.893 1214.28 537.537 1214.28 542.211C1214.28 543.242 1214.22 544.342 1214.08 545.51C1213.94 546.61 1213.77 547.744 1213.57 548.913L1207.18 581.805H1203.27L1209.75 548.397C1210.17 546.266 1210.37 544.342 1210.37 542.623C1210.37 538.155 1209 535.096 1206.25 533.447C1203.57 531.797 1199.83 530.972 1195.03 530.972C1192.14 530.972 1189.64 531.281 1187.51 531.9C1185.38 532.45 1183.56 533.412 1182.05 534.787C1180.54 536.093 1179.27 537.812 1178.24 539.942C1177.28 542.073 1176.49 544.72 1175.87 547.882L1169.28 581.805H1165.37ZM1233.5 528.91H1237.41L1227.11 581.805H1223.2L1233.5 528.91ZM1238.44 510.35C1240.36 510.35 1241.32 511.381 1241.32 513.444C1241.32 516.193 1240.12 517.568 1237.72 517.568C1235.73 517.568 1234.73 516.537 1234.73 514.475C1234.73 511.725 1235.97 510.35 1238.44 510.35ZM1266.38 578.299C1268.17 578.299 1269.95 578.299 1271.74 578.299C1273.52 578.23 1275.31 578.161 1277.09 578.093L1275.55 581.805C1274.17 581.942 1272.53 582.011 1270.6 582.011C1268.68 582.011 1267.03 582.011 1265.66 582.011C1261.88 582.011 1258.69 581.633 1256.08 580.877C1253.48 580.052 1251.35 578.883 1249.7 577.371C1248.05 575.859 1246.85 574.037 1246.09 571.906C1245.41 569.707 1245.06 567.198 1245.06 564.379C1245.06 561.08 1245.47 557.471 1246.3 553.553C1247.33 548.329 1248.7 544.101 1250.42 540.87C1252.13 537.64 1254.16 535.131 1256.5 533.344C1258.9 531.556 1261.65 530.353 1264.73 529.735C1267.82 529.047 1271.26 528.704 1275.03 528.704C1275.99 528.704 1277.47 528.738 1279.46 528.807C1281.45 528.807 1283.37 528.841 1285.23 528.91L1283.68 532.622C1282.52 532.553 1281.14 532.519 1279.56 532.519C1278.05 532.45 1276.37 532.416 1274.52 532.416C1271.01 532.416 1267.96 532.725 1265.35 533.344C1262.74 533.893 1260.48 534.959 1258.56 536.54C1256.63 538.052 1254.99 540.217 1253.61 543.036C1252.31 545.785 1251.21 549.36 1250.32 553.759C1249.49 557.815 1249.08 561.252 1249.08 564.07C1249.08 566.957 1249.46 569.328 1250.21 571.184C1251.04 572.972 1252.17 574.415 1253.61 575.515C1255.12 576.546 1256.94 577.268 1259.07 577.68C1261.27 578.093 1263.71 578.299 1266.38 578.299ZM1309.38 583.454C1306.36 583.454 1303.65 583.111 1301.25 582.423C1298.85 581.805 1296.82 580.774 1295.17 579.33C1293.52 577.886 1292.25 575.996 1291.36 573.659C1290.47 571.253 1290.02 568.332 1290.02 564.895C1290.02 563.314 1290.09 561.63 1290.23 559.842C1290.43 557.986 1290.74 556.027 1291.16 553.965C1291.98 549.36 1293.04 545.407 1294.35 542.108C1295.72 538.74 1297.44 535.956 1299.5 533.756C1301.56 531.556 1304.06 529.941 1307.02 528.91C1309.97 527.81 1313.5 527.26 1317.62 527.26C1320.64 527.26 1323.36 527.604 1325.76 528.291C1328.16 528.91 1330.18 529.941 1331.83 531.384C1333.48 532.828 1334.75 534.753 1335.65 537.159C1336.54 539.496 1336.98 542.383 1336.98 545.82C1336.98 547.401 1336.88 549.119 1336.67 550.975C1336.54 552.762 1336.26 554.687 1335.85 556.749C1335.03 561.355 1333.93 565.342 1332.56 568.71C1331.25 572.009 1329.57 574.759 1327.51 576.958C1325.45 579.158 1322.94 580.774 1319.99 581.805C1317.04 582.904 1313.5 583.454 1309.38 583.454ZM1309.9 579.742C1313.06 579.742 1315.8 579.364 1318.14 578.608C1320.54 577.852 1322.6 576.615 1324.32 574.896C1326.03 573.109 1327.47 570.772 1328.64 567.885C1329.88 564.929 1330.91 561.286 1331.73 556.955C1332.14 554.756 1332.45 552.694 1332.66 550.769C1332.93 548.844 1333.07 547.091 1333.07 545.51C1333.07 540.149 1331.76 536.402 1329.15 534.271C1326.61 532.072 1322.6 530.972 1317.11 530.972C1313.95 530.972 1311.17 531.35 1308.76 532.106C1306.43 532.862 1304.41 534.134 1302.69 535.921C1300.97 537.64 1299.5 539.977 1298.26 542.933C1297.09 545.82 1296.1 549.428 1295.27 553.759C1294.86 555.959 1294.52 558.021 1294.25 559.946C1294.04 561.87 1293.93 563.623 1293.93 565.204C1293.93 570.566 1295.21 574.346 1297.75 576.546C1300.36 578.677 1304.41 579.742 1309.9 579.742ZM1394.12 583.454C1389.66 583.454 1385.81 582.698 1382.59 581.186C1379.43 579.674 1377.26 576.958 1376.1 573.04L1370.85 599.849H1366.93L1375.89 553.965C1376.78 549.291 1377.88 545.27 1379.19 541.902C1380.56 538.533 1382.24 535.784 1384.23 533.653C1386.22 531.453 1388.66 529.838 1391.54 528.807C1394.43 527.776 1397.86 527.26 1401.84 527.26C1404.86 527.26 1407.58 527.604 1409.98 528.291C1412.45 528.91 1414.51 529.941 1416.16 531.384C1417.88 532.828 1419.18 534.753 1420.07 537.159C1420.96 539.496 1421.41 542.417 1421.41 545.923C1421.41 547.504 1421.31 549.188 1421.1 550.975C1420.96 552.762 1420.69 554.687 1420.28 556.749C1419.45 561.355 1418.36 565.342 1416.98 568.71C1415.68 572.009 1413.99 574.759 1411.93 576.958C1409.87 579.158 1407.37 580.774 1404.42 581.805C1401.54 582.904 1398.1 583.454 1394.12 583.454ZM1394.33 579.742C1397.48 579.742 1400.23 579.364 1402.57 578.608C1404.97 577.852 1407.03 576.615 1408.74 574.896C1410.46 573.109 1411.9 570.772 1413.07 567.885C1414.31 564.929 1415.34 561.286 1416.16 556.955C1416.98 552.625 1417.39 548.947 1417.39 545.923C1417.39 540.492 1416.09 536.643 1413.48 534.375C1410.94 532.106 1406.96 530.972 1401.54 530.972C1398.38 530.972 1395.59 531.35 1393.19 532.106C1390.86 532.862 1388.83 534.134 1387.12 535.921C1385.4 537.64 1383.92 539.977 1382.69 542.933C1381.52 545.82 1380.53 549.428 1379.7 553.759C1379.29 555.959 1378.95 558.021 1378.67 559.946C1378.47 561.87 1378.36 563.623 1378.36 565.204C1378.36 570.566 1379.63 574.346 1382.17 576.546C1384.78 578.677 1388.83 579.742 1394.33 579.742ZM1450.48 583.454C1447.46 583.454 1444.75 583.111 1442.35 582.423C1439.95 581.805 1437.92 580.774 1436.27 579.33C1434.62 577.886 1433.36 575.996 1432.46 573.659C1431.57 571.253 1431.12 568.332 1431.12 564.895C1431.12 563.314 1431.19 561.63 1431.33 559.842C1431.53 557.986 1431.85 556.027 1432.26 553.965C1433.08 549.36 1434.14 545.407 1435.45 542.108C1436.82 538.74 1438.54 535.956 1440.6 533.756C1442.66 531.556 1445.16 529.941 1448.12 528.91C1451.07 527.81 1454.6 527.26 1458.72 527.26C1461.74 527.26 1464.46 527.604 1466.86 528.291C1469.26 528.91 1471.29 529.941 1472.93 531.384C1474.58 532.828 1475.85 534.753 1476.75 537.159C1477.64 539.496 1478.08 542.383 1478.08 545.82C1478.08 547.401 1477.98 549.119 1477.78 550.975C1477.64 552.762 1477.36 554.687 1476.95 556.749C1476.13 561.355 1475.03 565.342 1473.66 568.71C1472.35 572.009 1470.67 574.759 1468.61 576.958C1466.55 579.158 1464.04 580.774 1461.09 581.805C1458.14 582.904 1454.6 583.454 1450.48 583.454ZM1451 579.742C1454.16 579.742 1456.9 579.364 1459.24 578.608C1461.64 577.852 1463.7 576.615 1465.42 574.896C1467.13 573.109 1468.58 570.772 1469.74 567.885C1470.98 564.929 1472.01 561.286 1472.83 556.955C1473.24 554.756 1473.55 552.694 1473.76 550.769C1474.03 548.844 1474.17 547.091 1474.17 545.51C1474.17 540.149 1472.87 536.402 1470.26 534.271C1467.72 532.072 1463.7 530.972 1458.21 530.972C1455.05 530.972 1452.27 531.35 1449.87 532.106C1447.53 532.862 1445.51 534.134 1443.79 535.921C1442.07 537.64 1440.6 539.977 1439.36 542.933C1438.19 545.82 1437.2 549.428 1436.38 553.759C1435.96 555.959 1435.62 558.021 1435.35 559.946C1435.14 561.87 1435.04 563.623 1435.04 565.204C1435.04 570.566 1436.31 574.346 1438.85 576.546C1441.46 578.677 1445.51 579.742 1451 579.742ZM1489.7 581.805H1485.79L1492.38 548.088C1493.2 543.964 1494.3 540.63 1495.68 538.087C1497.05 535.543 1498.7 533.584 1500.62 532.209C1502.54 530.835 1504.7 529.907 1507.1 529.425C1509.51 528.944 1512.15 528.704 1515.04 528.704C1515.59 528.704 1516.24 528.704 1516.99 528.704C1517.75 528.704 1518.5 528.738 1519.26 528.807C1520.01 528.807 1520.74 528.841 1521.42 528.91C1522.11 528.91 1522.66 528.91 1523.07 528.91L1521.52 532.622C1520.63 532.553 1519.5 532.519 1518.13 532.519C1516.75 532.45 1515.59 532.416 1514.62 532.416C1512.22 532.416 1510.02 532.622 1508.03 533.034C1506.04 533.378 1504.26 534.134 1502.68 535.303C1501.17 536.471 1499.86 538.121 1498.76 540.252C1497.67 542.314 1496.81 545.064 1496.19 548.5L1489.7 581.805ZM1560.57 550.15L1554.39 581.805H1550.37L1564.69 508.391H1584.87C1592.56 508.391 1598.36 509.663 1602.27 512.206C1606.19 514.681 1608.15 518.84 1608.15 524.682C1608.15 525.507 1608.08 526.401 1607.94 527.363C1607.87 528.326 1607.77 529.288 1607.63 530.25C1607.01 534.1 1605.95 537.33 1604.44 539.942C1602.93 542.486 1601.01 544.514 1598.67 546.026C1596.41 547.538 1593.69 548.604 1590.53 549.222C1587.38 549.841 1583.84 550.15 1579.93 550.15H1560.57ZM1567.88 512.206L1561.29 546.335H1580.03C1583.74 546.335 1586.93 546.095 1589.61 545.613C1592.29 545.064 1594.55 544.204 1596.41 543.036C1598.26 541.798 1599.73 540.183 1600.83 538.19C1601.93 536.196 1602.79 533.756 1603.41 530.869C1603.62 529.769 1603.79 528.738 1603.92 527.776C1604.06 526.813 1604.13 525.885 1604.13 524.992C1604.13 522.517 1603.68 520.455 1602.79 518.805C1601.9 517.155 1600.59 515.849 1598.88 514.887C1597.16 513.856 1595.1 513.169 1592.7 512.825C1590.3 512.412 1587.55 512.206 1584.46 512.206H1567.88ZM1616.68 556.646C1616.41 558.021 1616.2 559.327 1616.06 560.564C1615.99 561.733 1615.96 562.867 1615.96 563.967C1615.96 568.641 1617.23 572.215 1619.77 574.69C1622.38 577.096 1626.81 578.299 1633.05 578.299C1635.66 578.299 1638.1 578.299 1640.37 578.299C1642.63 578.23 1644.93 578.127 1647.26 577.99L1645.72 581.701C1643.53 581.839 1641.47 581.908 1639.54 581.908C1637.69 581.976 1635.56 582.011 1633.16 582.011C1629.31 582.011 1626.05 581.598 1623.37 580.773C1620.69 579.949 1618.53 578.78 1616.89 577.268C1615.24 575.756 1614.04 573.9 1613.28 571.7C1612.52 569.5 1612.15 567.026 1612.15 564.276C1612.15 560.839 1612.59 557.23 1613.49 553.45C1614.58 548.569 1615.89 544.479 1617.4 541.18C1618.98 537.812 1620.83 535.096 1622.96 533.034C1625.16 530.972 1627.63 529.494 1630.38 528.601C1633.19 527.707 1636.42 527.26 1640.06 527.26C1643.15 527.26 1645.75 527.569 1647.88 528.188C1650.08 528.738 1651.86 529.563 1653.24 530.663C1654.68 531.694 1655.71 532.965 1656.33 534.478C1656.95 535.99 1657.26 537.64 1657.26 539.427C1657.26 540.939 1657.05 542.52 1656.64 544.17C1655.68 548.432 1653.65 551.594 1650.56 553.656C1647.47 555.649 1642.66 556.646 1636.14 556.646H1616.68ZM1639.96 530.869C1636.87 530.869 1634.12 531.281 1631.72 532.106C1629.31 532.862 1627.22 534.134 1625.43 535.921C1623.65 537.64 1622.07 539.908 1620.69 542.726C1619.39 545.545 1618.29 549.016 1617.4 553.14H1636.04C1638.72 553.14 1641.02 553.003 1642.94 552.728C1644.86 552.384 1646.44 551.834 1647.68 551.078C1648.98 550.322 1650.01 549.36 1650.77 548.191C1651.59 546.954 1652.21 545.442 1652.62 543.654C1652.96 542.073 1653.14 540.733 1653.14 539.633C1653.14 536.952 1652.14 534.821 1650.15 533.24C1648.23 531.659 1644.83 530.869 1639.96 530.869ZM1677.1 528.91H1698.63L1697.08 532.519H1676.38L1670.41 563.554C1670 565.823 1669.79 567.747 1669.79 569.328C1669.79 572.697 1670.72 574.999 1672.57 576.237C1674.42 577.474 1677.31 578.093 1681.22 578.093H1689.05L1687.51 581.805H1681.33C1676.31 581.805 1672.47 580.98 1669.79 579.33C1667.18 577.68 1665.88 574.553 1665.88 569.947C1665.88 567.816 1666.12 565.548 1666.6 563.142L1675.87 515.196L1679.88 514.475L1677.1 528.91ZM1705.89 556.646C1705.61 558.021 1705.41 559.327 1705.27 560.564C1705.2 561.733 1705.17 562.867 1705.17 563.967C1705.17 568.641 1706.43 572.215 1708.98 574.69C1711.58 577.096 1716.01 578.299 1722.26 578.299C1724.87 578.299 1727.31 578.299 1729.57 578.299C1731.84 578.23 1734.14 578.127 1736.47 577.99L1734.93 581.701C1732.73 581.839 1730.67 581.908 1728.75 581.908C1726.89 581.976 1724.77 582.011 1722.36 582.011C1718.52 582.011 1715.26 581.598 1712.58 580.773C1709.9 579.949 1707.74 578.78 1706.09 577.268C1704.44 575.756 1703.24 573.9 1702.49 571.7C1701.73 569.5 1701.35 567.026 1701.35 564.276C1701.35 560.839 1701.8 557.23 1702.7 553.45C1703.79 548.569 1705.1 544.479 1706.61 541.18C1708.19 537.812 1710.04 535.096 1712.17 533.034C1714.37 530.972 1716.84 529.494 1719.58 528.601C1722.4 527.707 1725.63 527.26 1729.27 527.26C1732.35 527.26 1734.96 527.569 1737.09 528.188C1739.29 528.738 1741.07 529.563 1742.45 530.663C1743.89 531.694 1744.92 532.965 1745.54 534.478C1746.15 535.99 1746.46 537.64 1746.46 539.427C1746.46 540.939 1746.26 542.52 1745.84 544.17C1744.88 548.432 1742.86 551.594 1739.77 553.656C1736.68 555.649 1731.87 556.646 1725.35 556.646H1705.89ZM1729.16 530.869C1726.07 530.869 1723.32 531.281 1720.92 532.106C1718.52 532.862 1716.43 534.134 1714.64 535.921C1712.86 537.64 1711.28 539.908 1709.9 542.726C1708.6 545.545 1707.5 549.016 1706.61 553.14H1725.25C1727.92 553.14 1730.23 553.003 1732.15 552.728C1734.07 552.384 1735.65 551.834 1736.89 551.078C1738.19 550.322 1739.22 549.36 1739.98 548.191C1740.8 546.954 1741.42 545.442 1741.83 543.654C1742.17 542.073 1742.34 540.733 1742.34 539.633C1742.34 536.952 1741.35 534.821 1739.36 533.24C1737.44 531.659 1734.03 530.869 1729.16 530.869ZM1756.11 581.805H1752.2L1758.79 548.088C1759.62 543.964 1760.71 540.63 1762.09 538.087C1763.46 535.543 1765.11 533.584 1767.03 532.209C1768.95 530.835 1771.12 529.907 1773.52 529.425C1775.92 528.944 1778.56 528.704 1781.45 528.704C1782 528.704 1782.65 528.704 1783.41 528.704C1784.16 528.704 1784.92 528.738 1785.67 528.807C1786.43 528.807 1787.15 528.841 1787.83 528.91C1788.52 528.91 1789.07 528.91 1789.48 528.91L1787.94 532.622C1787.05 532.553 1785.91 532.519 1784.54 532.519C1783.16 532.45 1782 532.416 1781.04 532.416C1778.63 532.416 1776.44 532.622 1774.45 533.034C1772.45 533.378 1770.67 534.134 1769.09 535.303C1767.58 536.471 1766.28 538.121 1765.18 540.252C1764.08 542.314 1763.22 545.064 1762.6 548.5L1756.11 581.805ZM1883.73 508.391L1869.41 581.805H1865.81L1833.57 514.578L1820.59 581.805H1816.79L1831.1 508.391H1834.71L1866.84 575.721L1879.91 508.391H1883.73ZM1907.48 583.454C1904.46 583.454 1901.75 583.111 1899.34 582.423C1896.94 581.805 1894.92 580.774 1893.27 579.33C1891.62 577.886 1890.35 575.996 1889.46 573.659C1888.56 571.253 1888.12 568.332 1888.12 564.895C1888.12 563.314 1888.19 561.63 1888.33 559.842C1888.53 557.986 1888.84 556.027 1889.25 553.965C1890.08 549.36 1891.14 545.407 1892.45 542.108C1893.82 538.74 1895.54 535.956 1897.59 533.756C1899.65 531.556 1902.16 529.941 1905.11 528.91C1908.06 527.81 1911.6 527.26 1915.72 527.26C1918.74 527.26 1921.45 527.604 1923.85 528.291C1926.26 528.91 1928.28 529.941 1929.93 531.384C1931.58 532.828 1932.85 534.753 1933.74 537.159C1934.63 539.496 1935.08 542.383 1935.08 545.82C1935.08 547.401 1934.98 549.119 1934.77 550.975C1934.63 552.762 1934.36 554.687 1933.95 556.749C1933.12 561.355 1932.02 565.342 1930.65 568.71C1929.35 572.009 1927.67 574.759 1925.61 576.958C1923.55 579.158 1921.04 580.774 1918.09 581.805C1915.13 582.904 1911.6 583.454 1907.48 583.454ZM1907.99 579.742C1911.15 579.742 1913.9 579.364 1916.23 578.608C1918.64 577.852 1920.7 576.615 1922.41 574.896C1924.13 573.109 1925.57 570.772 1926.74 567.885C1927.97 564.929 1929 561.286 1929.83 556.955C1930.24 554.756 1930.55 552.694 1930.76 550.769C1931.03 548.844 1931.17 547.091 1931.17 545.51C1931.17 540.149 1929.86 536.402 1927.25 534.271C1924.71 532.072 1920.7 530.972 1915.2 530.972C1912.05 530.972 1909.27 531.35 1906.86 532.106C1904.53 532.862 1902.5 534.134 1900.79 535.921C1899.07 537.64 1897.59 539.977 1896.36 542.933C1895.19 545.82 1894.19 549.428 1893.37 553.759C1892.96 555.959 1892.62 558.021 1892.34 559.946C1892.13 561.87 1892.03 563.623 1892.03 565.204C1892.03 570.566 1893.3 574.346 1895.84 576.546C1898.45 578.677 1902.5 579.742 1907.99 579.742ZM1950.12 528.91L1959.49 577.577L1987.71 528.91H1991.93L1961.24 581.805H1956.4L1946.1 528.91H1950.12ZM2012.38 582.733C2009.09 582.733 2006.13 582.492 2003.52 582.011C2000.98 581.598 1998.79 580.842 1996.93 579.742C1995.15 578.643 1993.77 577.199 1992.81 575.412C1991.85 573.625 1991.37 571.425 1991.37 568.813C1991.37 567.232 1991.58 565.445 1991.99 563.451C1993.16 558.021 1995.49 554.137 1998.99 551.8C2002.56 549.463 2007.27 548.294 2013.1 548.294C2017.57 548.294 2021.34 548.844 2024.43 549.944C2027.52 551.044 2029.72 552.969 2031.02 555.718L2032.36 548.913C2032.57 547.813 2032.74 546.782 2032.88 545.82C2033.01 544.857 2033.08 543.929 2033.08 543.036C2033.08 539.393 2031.92 536.712 2029.58 534.993C2027.32 533.275 2023.43 532.416 2017.94 532.416C2015.33 532.416 2012.72 532.416 2010.11 532.416C2007.57 532.416 2004.97 532.484 2002.29 532.622L2003.83 528.91C2004.52 528.841 2006 528.807 2008.26 528.807C2010.6 528.738 2013.96 528.704 2018.35 528.704C2021.79 528.704 2024.67 529.047 2027 529.735C2029.34 530.353 2031.23 531.281 2032.67 532.519C2034.11 533.756 2035.14 535.268 2035.76 537.055C2036.45 538.774 2036.79 540.699 2036.79 542.83C2036.79 543.861 2036.72 544.96 2036.58 546.129C2036.52 547.229 2036.34 548.363 2036.07 549.532L2030.51 577.68C2030.16 579.124 2029.72 580.086 2029.17 580.567C2028.62 581.048 2027.66 581.427 2026.29 581.701C2024.84 581.976 2022.78 582.217 2020.11 582.423C2017.5 582.629 2014.92 582.733 2012.38 582.733ZM2012.79 579.021C2014.99 579.021 2017.26 578.952 2019.59 578.814C2021.99 578.608 2024.33 578.368 2026.59 578.093L2028.65 567.266C2028.79 566.441 2028.89 565.651 2028.96 564.895C2029.1 564.139 2029.17 563.417 2029.17 562.729C2029.17 558.605 2027.76 555.787 2024.94 554.275C2022.13 552.694 2018.15 551.903 2013 551.903C2007.99 551.903 2004.11 552.831 2001.36 554.687C1998.69 556.543 1996.86 559.671 1995.9 564.07C1995.77 564.895 1995.63 565.685 1995.49 566.441C1995.42 567.129 1995.39 567.816 1995.39 568.504C1995.39 570.772 1995.83 572.594 1996.73 573.968C1997.62 575.343 1998.82 576.409 2000.33 577.165C2001.91 577.921 2003.77 578.436 2005.89 578.711C2008.02 578.918 2010.32 579.021 2012.79 579.021ZM2079.54 569.844C2079.68 569.157 2079.79 568.538 2079.85 567.988C2079.99 567.369 2080.06 566.785 2080.06 566.235C2080.06 562.248 2077.31 559.499 2071.82 557.986L2060.08 554.687C2056.3 553.587 2053.66 552.109 2052.15 550.253C2050.71 548.329 2049.99 546.198 2049.99 543.861C2049.99 542.555 2050.13 541.352 2050.4 540.252C2050.95 537.846 2051.81 535.887 2052.97 534.375C2054.21 532.862 2055.69 531.694 2057.4 530.869C2059.19 530.044 2061.21 529.494 2063.48 529.219C2065.81 528.875 2068.35 528.704 2071.1 528.704C2071.78 528.704 2072.78 528.704 2074.09 528.704C2075.39 528.704 2076.87 528.738 2078.51 528.807C2080.16 528.807 2081.88 528.841 2083.66 528.91C2085.52 528.979 2087.37 529.047 2089.22 529.116L2087.78 532.828C2086.34 532.759 2084.69 532.725 2082.84 532.725C2081.05 532.656 2079.27 532.622 2077.48 532.622C2075.7 532.553 2074.05 532.519 2072.54 532.519C2071.1 532.45 2069.97 532.416 2069.14 532.416C2064.68 532.416 2061.25 533.034 2058.84 534.271C2056.44 535.44 2054.9 537.571 2054.21 540.664C2054.07 541.214 2053.97 541.73 2053.9 542.211C2053.83 542.692 2053.8 543.173 2053.8 543.654C2053.8 545.442 2054.38 546.954 2055.55 548.191C2056.72 549.36 2058.78 550.356 2061.73 551.181L2072.75 554.275C2076.8 555.443 2079.68 556.955 2081.4 558.811C2083.11 560.667 2083.97 563.004 2083.97 565.823C2083.97 566.373 2083.9 567.129 2083.77 568.091C2083.63 569.053 2083.46 569.947 2083.25 570.772C2082.84 572.422 2082.22 573.934 2081.4 575.309C2080.64 576.684 2079.47 577.886 2077.9 578.918C2076.38 579.88 2074.39 580.636 2071.92 581.186C2069.45 581.736 2066.33 582.011 2062.55 582.011C2059.05 582.011 2055.79 582.011 2052.77 582.011C2049.81 582.011 2046.62 581.942 2043.19 581.805L2044.73 578.093C2047 578.161 2048.92 578.23 2050.5 578.299C2052.08 578.299 2053.49 578.299 2054.73 578.299C2056.03 578.299 2057.27 578.299 2058.43 578.299C2059.67 578.299 2061.07 578.299 2062.65 578.299C2065.95 578.299 2068.63 578.093 2070.69 577.68C2072.75 577.268 2074.36 576.684 2075.53 575.927C2076.76 575.171 2077.66 574.278 2078.21 573.247C2078.76 572.215 2079.2 571.081 2079.54 569.844ZM2128.12 569.844C2128.26 569.157 2128.36 568.538 2128.43 567.988C2128.57 567.369 2128.64 566.785 2128.64 566.235C2128.64 562.248 2125.89 559.499 2120.4 557.986L2108.66 554.687C2104.88 553.587 2102.24 552.109 2100.73 550.253C2099.28 548.329 2098.56 546.198 2098.56 543.861C2098.56 542.555 2098.7 541.352 2098.98 540.252C2099.53 537.846 2100.38 535.887 2101.55 534.375C2102.79 532.862 2104.26 531.694 2105.98 530.869C2107.76 530.044 2109.79 529.494 2112.05 529.219C2114.39 528.875 2116.93 528.704 2119.67 528.704C2120.36 528.704 2121.36 528.704 2122.66 528.704C2123.97 528.704 2125.44 528.738 2127.09 528.807C2128.74 528.807 2130.45 528.841 2132.24 528.91C2134.09 528.979 2135.95 529.047 2137.8 529.116L2136.36 532.828C2134.92 532.759 2133.27 532.725 2131.41 532.725C2129.63 532.656 2127.84 532.622 2126.06 532.622C2124.27 532.553 2122.63 532.519 2121.12 532.519C2119.67 532.45 2118.54 532.416 2117.72 532.416C2113.26 532.416 2109.82 533.034 2107.42 534.271C2105.02 535.44 2103.47 537.571 2102.79 540.664C2102.65 541.214 2102.55 541.73 2102.48 542.211C2102.41 542.692 2102.37 543.173 2102.37 543.654C2102.37 545.442 2102.96 546.954 2104.13 548.191C2105.29 549.36 2107.35 550.356 2110.3 551.181L2121.32 554.275C2125.37 555.443 2128.26 556.955 2129.97 558.811C2131.69 560.667 2132.55 563.004 2132.55 565.823C2132.55 566.373 2132.48 567.129 2132.34 568.091C2132.21 569.053 2132.03 569.947 2131.83 570.772C2131.41 572.422 2130.8 573.934 2129.97 575.309C2129.22 576.684 2128.05 577.886 2126.47 578.918C2124.96 579.88 2122.97 580.636 2120.5 581.186C2118.03 581.736 2114.9 582.011 2111.13 582.011C2107.63 582.011 2104.36 582.011 2101.34 582.011C2098.39 582.011 2095.2 581.942 2091.77 581.805L2093.31 578.093C2095.58 578.161 2097.5 578.23 2099.08 578.299C2100.66 578.299 2102.07 578.299 2103.3 578.299C2104.61 578.299 2105.84 578.299 2107.01 578.299C2108.25 578.299 2109.65 578.299 2111.23 578.299C2114.53 578.299 2117.2 578.093 2119.26 577.68C2121.32 577.268 2122.94 576.684 2124.1 575.927C2125.34 575.171 2126.23 574.278 2126.78 573.247C2127.33 572.215 2127.78 571.081 2128.12 569.844ZM2164.65 582.733C2161.35 582.733 2158.4 582.492 2155.79 582.011C2153.25 581.598 2151.05 580.842 2149.2 579.742C2147.42 578.643 2146.04 577.199 2145.08 575.412C2144.12 573.625 2143.64 571.425 2143.64 568.813C2143.64 567.232 2143.85 565.445 2144.26 563.451C2145.42 558.021 2147.76 554.137 2151.26 551.8C2154.83 549.463 2159.53 548.294 2165.37 548.294C2169.83 548.294 2173.61 548.844 2176.7 549.944C2179.79 551.044 2181.98 552.969 2183.29 555.718L2184.63 548.913C2184.83 547.813 2185 546.782 2185.14 545.82C2185.28 544.857 2185.35 543.929 2185.35 543.036C2185.35 539.393 2184.18 536.712 2181.85 534.993C2179.58 533.275 2175.7 532.416 2170.21 532.416C2167.6 532.416 2164.99 532.416 2162.38 532.416C2159.84 532.416 2157.23 532.484 2154.56 532.622L2156.1 528.91C2156.79 528.841 2158.26 528.807 2160.53 528.807C2162.86 528.738 2166.23 528.704 2170.62 528.704C2174.05 528.704 2176.94 529.047 2179.27 529.735C2181.61 530.353 2183.49 531.281 2184.93 532.519C2186.38 533.756 2187.41 535.268 2188.02 537.055C2188.71 538.774 2189.05 540.699 2189.05 542.83C2189.05 543.861 2188.99 544.96 2188.85 546.129C2188.78 547.229 2188.61 548.363 2188.34 549.532L2182.77 577.68C2182.43 579.124 2181.98 580.086 2181.43 580.567C2180.88 581.048 2179.92 581.427 2178.55 581.701C2177.11 581.976 2175.05 582.217 2172.37 582.423C2169.76 582.629 2167.19 582.733 2164.65 582.733ZM2165.06 579.021C2167.26 579.021 2169.52 578.952 2171.86 578.814C2174.26 578.608 2176.59 578.368 2178.86 578.093L2180.92 567.266C2181.06 566.441 2181.16 565.651 2181.23 564.895C2181.36 564.139 2181.43 563.417 2181.43 562.729C2181.43 558.605 2180.03 555.787 2177.21 554.275C2174.4 552.694 2170.42 551.903 2165.27 551.903C2160.25 551.903 2156.37 552.831 2153.63 554.687C2150.95 556.543 2149.13 559.671 2148.17 564.07C2148.03 564.895 2147.9 565.685 2147.76 566.441C2147.69 567.129 2147.65 567.816 2147.65 568.504C2147.65 570.772 2148.1 572.594 2148.99 573.968C2149.89 575.343 2151.09 576.409 2152.6 577.165C2154.18 577.921 2156.03 578.436 2158.16 578.711C2160.29 578.918 2162.59 579.021 2165.06 579.021ZM2212.24 528.91H2233.77L2232.22 532.519H2211.52L2205.55 563.554C2205.14 565.823 2204.93 567.747 2204.93 569.328C2204.93 572.697 2205.86 574.999 2207.71 576.237C2209.57 577.474 2212.45 578.093 2216.36 578.093H2224.19L2222.64 581.805H2216.46C2211.45 581.805 2207.61 580.98 2204.93 579.33C2202.32 577.68 2201.02 574.553 2201.02 569.947C2201.02 567.816 2201.26 565.548 2201.74 563.142L2211.01 515.196L2215.02 514.475L2212.24 528.91Z" fill="white" />
    </g>
    <defs>
        <clipPath id="clip0_2317_5237">
            <rect width="2262" height="195" fill="white" transform="translate(1658 232)" />
        </clipPath>
        <clipPath id="clip1_2317_5237">
            <rect width="1464" height="93" fill="white" transform="translate(770 507)" />
        </clipPath>
    </defs>
</svg>
